<svg xmlns="http://www.w3.org/2000/svg" xmlns:xlink="http://www.w3.org/1999/xlink" version="1.1" x="0px" y="0px" viewBox="0 0 100 125" enable-background="new 0 0 100 100" xml:space="preserve"><path d="M89,50.001c0-3.177,2.469-5.77,5.593-5.98c-0.252-1.895-0.615-3.753-1.095-5.566c-2.968,1.008-6.248-0.443-7.465-3.379  c-1.215-2.935,0.074-6.276,2.88-7.665c-0.957-1.646-2.013-3.226-3.164-4.73c-2.358,2.057-5.927,1.987-8.172-0.257  c-2.245-2.246-2.315-5.814-0.257-8.171c-1.505-1.152-3.085-2.208-4.731-3.165c-1.388,2.806-4.729,4.095-7.663,2.88  c-2.938-1.217-4.388-4.497-3.38-7.465c-1.813-0.48-3.672-0.843-5.566-1.095C55.769,8.531,53.175,11,50,11  c-3.177,0-5.769-2.469-5.98-5.591c-1.895,0.251-3.754,0.614-5.567,1.094c1.008,2.968-0.443,6.248-3.378,7.464  c-2.935,1.215-6.275-0.074-7.664-2.88c-1.646,0.958-3.226,2.013-4.731,3.165c2.057,2.357,1.987,5.926-0.257,8.17  c-2.246,2.245-5.813,2.315-8.17,0.257c-1.152,1.505-2.208,3.085-3.165,4.731c2.806,1.389,4.095,4.73,2.88,7.663  c-1.217,2.938-4.497,4.388-7.465,3.38c-0.48,1.813-0.843,3.672-1.095,5.567C8.53,44.232,11,46.826,11,50  c0,3.177-2.47,5.77-5.593,5.98c0.252,1.895,0.615,3.754,1.095,5.567c2.968-1.009,6.249,0.441,7.465,3.379  c1.215,2.936-0.074,6.275-2.88,7.664c0.958,1.646,2.013,3.226,3.165,4.73c2.357-2.059,5.926-1.987,8.171,0.257  c2.245,2.246,2.315,5.814,0.257,8.172c1.505,1.151,3.085,2.207,4.731,3.164c1.388-2.806,4.73-4.096,7.663-2.881  c2.938,1.218,4.388,4.498,3.38,7.466c1.813,0.48,3.672,0.843,5.567,1.095C44.231,91.471,46.825,89,50,89  c3.177,0,5.77,2.471,5.979,5.594c1.896-0.252,3.755-0.615,5.567-1.095c-1.009-2.969,0.442-6.249,3.379-7.466  c2.936-1.216,6.275,0.075,7.664,2.881c1.646-0.958,3.227-2.013,4.73-3.165c-2.058-2.357-1.987-5.927,0.257-8.172  c2.246-2.245,5.815-2.315,8.172-0.257c1.152-1.505,2.207-3.085,3.165-4.731c-2.806-1.388-4.096-4.729-2.88-7.663  c1.217-2.938,4.495-4.388,7.464-3.38c0.48-1.813,0.843-3.671,1.095-5.565C91.469,55.77,89,53.176,89,50.001z M84.046,58.108  l-2.199-1.269l-10,17.32l2.192,1.266C67.769,81.357,59.313,85.001,50,85.001s-17.769-3.644-24.039-9.574l2.192-1.267l-10-17.32  l-2.199,1.27C15.336,55.506,15,52.793,15,50.001c0-15.854,10.544-29.239,25-33.542V19h20v-2.542c14.456,4.304,25,17.688,25,33.542  C85,52.793,84.663,55.506,84.046,58.108z"/><path d="M67.565,51.992L48.008,67.565l1.831,2.299c4.396,0.038,8.833-1.367,12.54-4.319c3.707-2.951,6.07-6.961,7.018-11.254  L67.565,51.992z"/><path d="M50.162,30.137c-4.396-0.039-8.833,1.367-12.54,4.318c-3.707,2.952-6.07,6.961-7.017,11.254l1.83,2.298l19.557-15.573  L50.162,30.137z"/><rect x="39.423" y="42.674" transform="matrix(-0.7823 0.6229 -0.6229 -0.7823 105.9581 48.9602)" width="10" height="0.645"/><rect x="41.03" y="44.693" transform="matrix(-0.7823 0.6229 -0.6229 -0.7823 110.0794 51.5541)" width="10" height="0.644"/><rect x="40.227" y="43.683" transform="matrix(-0.7823 0.6229 -0.6229 -0.7823 108.0188 50.2562)" width="10" height="0.645"/><rect x="38.62" y="41.665" transform="matrix(-0.7823 0.6229 -0.6229 -0.7823 103.8981 47.6603)" width="10" height="0.645"/><rect x="37.816" y="40.656" transform="matrix(0.7823 -0.6229 0.6229 0.7823 -16.2044 35.5921)" width="10" height="0.645"/><rect x="52.191" y="58.71" transform="matrix(-0.7823 0.6229 -0.6229 -0.7823 138.7035 69.5858)" width="10" height="0.644"/><path d="M57.026,50.797l2.856-2.274c-0.25-1.683-0.924-3.325-2.06-4.751c-1.137-1.427-2.586-2.451-4.17-3.071l-2.856,2.274  l-0.252-0.317l-7.823,6.229l0.252,0.317l-2.856,2.274c0.25,1.683,0.923,3.325,2.06,4.752c1.136,1.426,2.586,2.451,4.169,3.071  l2.856-2.274l0.26,0.326l7.823-6.229L57.026,50.797z M51.558,51.956c-1.081,0.859-2.653,0.682-3.513-0.398  c-0.86-1.081-0.682-2.653,0.398-3.513c1.08-0.86,2.653-0.682,3.513,0.398C52.815,49.523,52.638,51.096,51.558,51.956z"/><rect x="50.584" y="56.691" transform="matrix(0.7823 -0.6229 0.6229 0.7823 -23.4131 47.0372)" width="10" height="0.645"/><rect x="48.977" y="54.673" transform="matrix(0.7822 -0.623 0.623 0.7822 -22.5062 45.6011)" width="10" height="0.644"/><rect x="49.781" y="55.682" transform="matrix(0.7823 -0.6229 0.6229 0.7823 -22.9592 46.3133)" width="9.999" height="0.645"/><rect x="51.388" y="57.699" transform="matrix(0.7823 -0.6229 0.6229 0.7823 -23.8666 47.7556)" width="9.999" height="0.645"/><rect x="40" y="24.805" width="20" height="0.645"/><rect x="40" y="23.515" width="20" height="0.645"/><path d="M62.5,33.163v-4.814c-0.805-0.465-1.643-0.879-2.5-1.254v-0.933H40v0.933c-0.858,0.375-1.695,0.789-2.5,1.254v4.814  C40.995,30.562,45.309,29,50,29C54.692,29,59.006,30.562,62.5,33.163z"/><rect x="40" y="20.935" width="20" height="0.645"/><rect x="40" y="22.225" width="20" height="0.645"/><rect x="40" y="19.645" width="20" height="0.645"/><rect x="18.46" y="62.114" transform="matrix(-0.5 -0.866 0.866 -0.5 -11.3821 118.3016)" width="20" height="0.645"/><rect x="17.342" y="62.758" transform="matrix(-0.5 -0.866 0.866 -0.5 -13.6174 118.2999)" width="20.001" height="0.645"/><path d="M31.813,60.5c-2.346-4.063-3.15-8.58-2.645-12.907L25,50c-0.001,0.93,0.06,1.862,0.164,2.792l-0.808,0.467l10,17.32  l0.808-0.466c0.753,0.555,1.531,1.073,2.336,1.537l4.169-2.406C37.668,67.519,34.159,64.563,31.813,60.5z"/><rect x="15.108" y="64.049" transform="matrix(-0.5 -0.866 0.866 -0.5 -18.0841 118.3014)" width="20" height="0.645"/><rect x="16.225" y="63.404" transform="matrix(-0.5 -0.866 0.866 -0.5 -15.8505 118.3019)" width="20" height="0.644"/><rect x="13.991" y="64.694" transform="matrix(-0.5 -0.866 0.866 -0.5 -20.319 118.3021)" width="20" height="0.645"/><rect x="61.54" y="62.114" transform="matrix(-0.5 0.866 -0.866 -0.5 161.3818 31.6997)" width="20" height="0.645"/><rect x="62.657" y="62.759" transform="matrix(-0.5 0.866 -0.866 -0.5 163.6154 31.6975)" width="20.001" height="0.645"/><path d="M70.831,47.593c0.506,4.327-0.299,8.844-2.645,12.907c-2.346,4.063-5.855,7.019-9.855,8.744L62.5,71.65  c0.806-0.464,1.583-0.982,2.337-1.537l0.808,0.466l10-17.32l-0.808-0.467C74.94,51.862,75.001,50.93,75,50L70.831,47.593z"/><rect x="64.892" y="64.049" transform="matrix(-0.5 0.866 -0.866 -0.5 168.0846 31.6991)" width="20" height="0.645"/><rect x="63.774" y="63.404" transform="matrix(-0.5 0.866 -0.866 -0.5 165.8506 31.6998)" width="20" height="0.645"/><rect x="66.009" y="64.693" transform="matrix(-0.5 0.866 -0.866 -0.5 170.319 31.6991)" width="20" height="0.645"/><text x="0" y="115" fill="#000000" font-size="5px" font-weight="bold" font-family="'Helvetica Neue', Helvetica, Arial-Unicode, Arial, Sans-serif">Created by Arthur Shlain</text><text x="0" y="120" fill="#000000" font-size="5px" font-weight="bold" font-family="'Helvetica Neue', Helvetica, Arial-Unicode, Arial, Sans-serif">from the Noun Project</text></svg>